# xmcd
#
# Track frame offsets: 
#        150
#        12645
#        24756
#        37389
#        48759
#        62641
#        75781
#        89881
#        102374
#        115454
#        126825
#        140067
#        152408
#        165002
#        178380
#        191787
#        202132
#        216227
#        228797
#        241643
#        253508
#        263827
#        277862
#        287989
#        299934
#        310392
#
# Disc length: 4278 seconds
#
# Revision: 1
# Processed by: cddbd v1.5.2PL0 Copyright (c) Steve Scherf et al.
# Submitted via: ExactAudioCopyFreeDBPlugin 1.0
#
DISCID=8210b41a
DTITLE=Muddy Waters - You Shook Me: The Chess Masters Vol. 3 1958-1963
DTITLE=[CD1]
DYEAR=2012
DGENRE=Blues
TTITLE0=Walking Thru The Park
TTITLE1=Blues Before Sunrise
TTITLE2=Mean Mistreater
TTITLE3=Crawlin' Kingsnake
TTITLE4=Lonesome Road Blues
TTITLE5=Mopper's Blues
TTITLE6=Take The Bitter With The Sweet
TTITLE7=She's Into Something
TTITLE8=Southbound Train
TTITLE9=Just A Dream (On My Mind)
TTITLE10=I Feel So Good
TTITLE11=Hey, Hey
TTITLE12=Love Affair
TTITLE13=Recipe For Love
TTITLE14=Baby, I Done Got Wise
TTITLE15=Tell Me Baby
TTITLE16=When I Get To Thinking
TTITLE17=Double Trouble
TTITLE18=Woman Wanted
TTITLE19=Read Way Back
TTITLE20=I'm Your Doctor
TTITLE21=Deep Down In My Heart
TTITLE22=Tiger In Your Tank
TTITLE23=Soon Forgotten
TTITLE24=Meanest Woman
TTITLE25=I Got My Brand On You
EXTD=
EXTT0=
EXTT1=
EXTT2=
EXTT3=
EXTT4=
EXTT5=
EXTT6=
EXTT7=
EXTT8=
EXTT9=
EXTT10=
EXTT11=
EXTT12=
EXTT13=
EXTT14=
EXTT15=
EXTT16=
EXTT17=
EXTT18=
EXTT19=
EXTT20=
EXTT21=
EXTT22=
EXTT23=
EXTT24=
EXTT25=
PLAYORDER=
